<svg version="1.0" xmlns="http://www.w3.org/2000/svg"
 width="1024.000000pt" height="1024.000000pt" viewBox="0 0 1024.000000 1024.000000"
 preserveAspectRatio="xMidYMid meet">

<g transform="translate(0.000000,1024.000000) scale(0.100000,-0.100000)">
<path d="M8280 8863 c0 -26 108 -476 146 -609 5 -20 13 -21 267 -27 144 -4
325 -13 402 -21 77 -8 176 -17 220 -21 44 -3 138 -15 210 -25 71 -11 130 -18
132 -17 1 1 -11 68 -27 147 -15 80 -41 215 -56 300 l-27 156 -181 27 c-431 65
-1086 119 -1086 90z"/>
<path d="M6765 8803 c-51 -5 -328 -48 -470 -73 -60 -11 -123 -22 -140 -25
-150 -25 -445 -92 -457 -103 -15 -16 207 -732 227 -732 2 0 93 24 202 54 283
78 512 130 816 187 64 12 117 24 117 28 0 3 -15 53 -34 111 -49 152 -136 453
-136 474 0 6 -5 28 -11 49 -11 40 -9 40 -114 30z"/>
<path d="M4235 8171 c-110 -38 -240 -83 -290 -100 -136 -48 -468 -161 -472
-161 -11 0 2 -54 73 -305 56 -195 205 -626 224 -648 4 -5 148 61 321 145 173
85 385 187 472 228 86 41 157 78 157 83 0 5 -22 68 -49 140 -71 192 -178 534
-205 660 -4 15 -12 27 -19 27 -6 -1 -102 -32 -212 -69z"/>
<path d="M8035 8153 c-332 -22 -497 -36 -626 -53 -85 -11 -169 -20 -187 -20
-19 0 -35 -6 -38 -14 -6 -16 66 -214 179 -486 44 -107 82 -197 84 -199 1 -2
51 4 110 13 264 40 405 57 648 76 143 11 286 20 319 20 70 0 72 -26 -18 240
-36 107 -81 248 -101 313 l-37 117 -141 -2 c-78 -1 -164 -3 -192 -5z"/>
<path d="M9766 8034 c77 -336 147 -610 156 -616 7 -4 27 -8 45 -8 18 0 79 -9
135 -20 57 -11 111 -20 121 -20 16 0 17 19 15 297 l-3 296 -140 29 c-77 15
-169 32 -205 38 -36 5 -79 12 -97 16 -27 5 -31 4 -27 -12z"/>
<path d="M5720 7715 c-196 -66 -344 -121 -490 -180 -127 -51 -393 -165 -399
-171 -18 -16 364 -774 391 -774 5 0 87 40 182 89 240 123 608 286 797 354 14
5 4 32 -65 169 -45 90 -122 253 -170 363 -49 110 -89 201 -90 201 0 1 -71 -22
-156 -51z"/>
<path d="M2305 7575 c-199 -44 -524 -96 -700 -111 -100 -8 -95 -3 -78 -76 61
-264 99 -417 133 -533 56 -192 79 -267 131 -425 66 -200 43 -183 194 -149 240
53 462 116 692 196 l72 25 -26 66 c-38 99 -161 465 -184 547 -10 38 -32 117
-49 175 -16 58 -39 146 -51 195 -12 50 -24 95 -28 101 -4 8 -36 4 -106 -11z"/>
<path d="M0 6881 l0 -671 23 -5 c85 -18 375 -43 595 -51 165 -5 174 -5 168 13
-86 284 -252 1021 -281 1249 l-7 51 -161 22 c-148 21 -274 43 -319 57 -17 5
-18 -31 -18 -665z"/>
<path d="M8694 7404 c8 -18 78 -213 131 -364 13 -36 38 -103 55 -150 18 -47
38 -103 45 -125 l12 -40 344 -7 c189 -3 434 -13 543 -22 110 -9 201 -14 204
-12 2 3 -7 44 -21 93 -34 117 -104 378 -129 478 -11 44 -23 83 -27 87 -8 9
-104 23 -296 42 -176 18 -283 23 -619 32 -243 7 -249 7 -242 -12z"/>
<path d="M7310 7268 c-98 -21 -340 -79 -430 -103 -136 -37 -537 -161 -548
-170 -3 -3 396 -720 414 -743 1 -2 46 13 101 33 256 97 518 178 773 241 63 15
116 29 118 30 3 1 -24 60 -222 489 -58 126 -106 231 -106 232 0 6 -56 0 -100
-9z"/>
<path d="M3600 6764 c-218 -107 -425 -198 -642 -284 -60 -23 -108 -44 -108
-46 0 -3 15 -38 86 -201 7 -15 -19 -19 -201 -34 -259 -20 -481 -69 -752 -163
-56 -20 -104 -36 -106 -36 -2 0 -16 31 -31 70 -15 38 -31 72 -34 74 -4 2 -56
-5 -117 -15 -167 -28 -471 -59 -647 -66 -122 -5 -158 -9 -158 -19 0 -8 36
-123 80 -256 44 -133 80 -247 80 -253 0 -5 -48 -51 -107 -100 -210 -176 -434
-411 -601 -629 -32 -42 -50 -56 -68 -56 -22 0 -24 -3 -19 -22 4 -13 91 -274
192 -581 l186 -558 171 6 c94 4 246 13 338 21 l168 15 77 -54 c126 -89 327
-205 452 -264 64 -30 127 -59 140 -66 30 -15 46 -50 179 -412 39 -104 76 -191
82 -193 25 -9 493 122 758 213 141 48 320 113 331 121 2 2 -2 17 -8 35 -6 18
-10 33 -9 35 2 1 55 9 119 18 203 28 459 100 652 182 43 19 82 34 85 34 21 -1
-441 -227 -595 -291 -54 -23 -105 -45 -114 -50 -15 -8 -12 -19 23 -106 49
-123 167 -476 203 -608 61 -223 55 -206 78 -199 150 48 1027 489 1027 516 0
65 -171 534 -313 859 -16 36 -16 36 11 48 113 51 429 294 629 485 78 74 171
155 208 181 36 26 65 49 65 52 0 2 -5 13 -10 23 -8 15 -2 28 30 65 72 83 224
293 284 393 33 55 37 67 27 88 -32 71 -248 332 -407 492 l-123 122 97 74 c53
40 167 121 252 180 85 59 156 111 158 115 1 4 -52 86 -119 182 -67 96 -179
260 -247 364 -69 105 -129 194 -133 199 -12 14 -270 -144 -646 -395 l-222
-148 -84 39 c-82 37 -85 40 -127 112 -61 102 -256 489 -321 635 -30 67 -56
123 -59 123 -3 0 -66 -30 -140 -66z m-422 -1036 c27 -35 120 -219 107 -214
-97 37 -393 33 -517 -7 -114 -37 -193 -77 -284 -145 -73 -54 -172 -156 -214
-221 -16 -23 -17 -22 -65 80 -104 224 -145 323 -137 331 13 13 222 83 337 113
174 46 389 73 586 74 130 1 179 -2 187 -11z m741 -155 c139 -52 327 -138 403
-185 20 -13 72 -44 115 -69 122 -72 402 -286 426 -325 15 -25 -410 -326 -740
-523 l-121 -73 52 -81 c66 -103 246 -403 246 -410 0 -11 -88 -66 -191 -121
-280 -148 -642 -256 -912 -273 l-105 -6 -46 91 c-25 51 -46 94 -46 97 0 3 24
5 53 5 69 0 216 26 289 52 267 92 483 312 568 576 77 238 55 526 -55 728 -86
158 -239 310 -388 386 l-60 30 101 53 c55 30 124 67 154 84 64 37 62 38 257
-36z m-1016 -412 c6 -6 9 -11 6 -11 -3 0 -63 -21 -134 -46 -179 -64 -245 -84
-245 -73 0 4 19 27 43 50 36 35 93 68 157 93 25 9 160 0 173 -13z m-1633 -198
c18 -49 36 -92 40 -96 14 -16 463 56 740 119 80 18 146 32 147 31 1 -2 -7 -23
-18 -47 -19 -42 -41 -129 -57 -225 -8 -50 -8 -198 0 -245 29 -165 56 -242 127
-360 55 -91 202 -241 289 -295 34 -21 61 -39 60 -40 -5 -4 -194 -55 -318 -85
-114 -28 -114 -28 -160 -10 -103 41 -390 206 -485 278 -37 28 -54 52 -76 102
-63 145 -179 423 -230 548 l-54 133 -35 -5 c-20 -3 -100 -9 -180 -12 l-144 -7
47 56 c27 30 63 67 80 80 18 14 66 57 107 96 41 39 78 71 81 71 3 0 20 -39 39
-87z m3842 -215 l40 -48 -21 -25 -20 -26 -101 153 -102 153 82 -80 c45 -44
100 -101 122 -127z m-2557 -70 l26 -53 -26 30 c-29 33 -64 101 -65 125 0 18
29 -28 65 -102z"/>
<path d="M8780 6623 c-286 -24 -797 -96 -912 -129 -14 -4 -10 -18 29 -101 44
-96 134 -300 239 -542 30 -69 57 -128 61 -132 5 -5 55 3 113 16 211 49 620
118 774 131 44 4 76 12 76 18 0 12 -80 243 -163 471 -14 39 -43 116 -63 173
l-38 102 -35 -2 c-20 -1 -56 -3 -81 -5z"/>
<path d="M10142 6554 c3 -16 25 -105 49 -198 l44 -169 3 188 c1 103 0 190 -2
193 -3 2 -26 7 -52 10 l-47 5 5 -29z"/>
<path d="M6575 6081 c-176 -78 -462 -224 -620 -316 -71 -42 -131 -78 -134 -80
-2 -3 40 -70 93 -151 122 -183 230 -359 330 -536 43 -76 79 -138 81 -138 2 0
37 22 77 49 152 100 389 238 568 329 102 53 186 96 188 98 14 10 -418 798
-439 801 -8 1 -72 -24 -144 -56z"/>
<path d="M9388 5801 c-59 -4 -110 -10 -113 -13 -3 -3 28 -113 69 -244 41 -132
93 -304 116 -384 23 -80 44 -153 47 -162 3 -10 8 -16 12 -14 10 7 387 34 564
42 l157 7 0 377 0 378 -57 6 c-94 9 -679 15 -795 7z"/>
<path d="M8095 5586 c-22 -8 -121 -40 -220 -72 -235 -75 -605 -222 -605 -240
0 -3 21 -49 46 -102 90 -188 202 -451 274 -642 24 -63 46 -118 50 -123 3 -4
76 26 161 67 179 86 353 160 527 222 180 64 167 45 122 173 -53 148 -106 294
-135 366 -160 404 -142 376 -220 351z"/>
<path d="M1 5098 c-1 -131 0 -238 2 -238 1 0 33 -3 71 -7 l69 -5 -7 28 c-9 37
-104 366 -121 419 -12 35 -14 12 -14 -197z"/>
<path d="M6199 4661 c-180 -129 -297 -215 -489 -361 -102 -78 -193 -147 -203
-155 -17 -12 -17 -16 13 -75 86 -169 211 -470 297 -710 24 -68 46 -126 47
-128 2 -1 163 111 357 251 195 139 382 272 417 295 34 24 62 49 62 57 0 54
-327 807 -387 891 -5 8 -43 -14 -114 -65z"/>
<path d="M0 2988 l0 -545 223 -6 c239 -7 665 2 672 13 3 4 -7 47 -20 96 -14
49 -39 139 -56 199 -32 113 -158 522 -208 675 l-28 85 -189 6 c-104 4 -235 10
-291 14 l-103 7 0 -544z"/>
<path d="M2005 2511 c-266 -55 -664 -111 -892 -127 -117 -8 -116 -6 -89 -100
34 -116 113 -518 148 -752 l22 -153 46 5 c458 57 663 91 1095 182 44 9 82 18
84 20 12 11 -75 398 -146 649 -70 244 -90 300 -109 302 -10 1 -82 -11 -159
-26z"/>
</g>
</svg>
