<?xml version="1.0" standalone="no"?>
<!DOCTYPE svg PUBLIC "-//W3C//DTD SVG 20010904//EN"
 "http://www.w3.org/TR/2001/REC-SVG-20010904/DTD/svg10.dtd">
<svg version="1.0" xmlns="http://www.w3.org/2000/svg"
 width="1024.000000pt" height="1024.000000pt" viewBox="0 0 1024.000000 1024.000000"
 preserveAspectRatio="xMidYMid meet">

<g transform="translate(0.000000,1024.000000) scale(0.100000,-0.100000)">
<path d="M596 9889 c-8 -43 -6 -5770 2 -5792 7 -16 111 -17 2055 -20 2021 -2
2049 -2 2063 -22 22 -30 16 -2501 -6 -2515 -8 -5 -43 -10 -77 -10 -40 0 -92
-10 -150 -29 -48 -16 -108 -32 -133 -36 -25 -4 -64 -16 -87 -26 -23 -11 -53
-19 -66 -19 -13 0 -70 -16 -126 -35 -56 -19 -114 -35 -130 -35 -16 0 -48 -9
-72 -20 -24 -11 -55 -20 -69 -20 -14 -1 -63 -14 -110 -31 -47 -17 -116 -35
-155 -40 -38 -5 -76 -16 -85 -23 -8 -8 -35 -17 -60 -21 -49 -7 -169 -44 -185
-56 -6 -4 -39 -11 -73 -15 -35 -4 -80 -15 -100 -25 -20 -11 -48 -19 -62 -19
-27 0 -131 -31 -187 -56 -17 -8 -50 -14 -73 -14 -23 0 -56 -6 -73 -14 -18 -8
-77 -27 -132 -42 -55 -15 -105 -31 -112 -36 -6 -5 -44 -14 -84 -19 -39 -6 -81
-17 -93 -24 -12 -7 -43 -18 -71 -23 -75 -16 -159 -40 -191 -57 -16 -8 -47 -15
-69 -15 -22 0 -52 -6 -67 -14 -15 -8 -42 -17 -60 -21 -18 -3 -81 -22 -139 -41
-59 -19 -119 -34 -135 -34 -16 -1 -47 -8 -69 -16 -22 -9 -78 -26 -125 -39 -47
-12 -104 -30 -127 -38 -23 -9 -63 -19 -90 -23 -26 -3 -65 -13 -86 -22 -21 -8
-77 -24 -125 -36 -79 -20 -87 -24 -87 -46 0 -20 9 -28 49 -43 27 -9 74 -22
105 -26 31 -5 74 -16 97 -24 22 -9 69 -20 105 -25 35 -6 96 -20 134 -32 39
-12 102 -28 140 -35 39 -7 88 -20 110 -29 22 -8 54 -15 71 -16 17 0 60 -9 94
-20 77 -25 92 -25 171 -1 35 10 85 22 112 25 26 3 61 13 77 21 16 8 51 18 77
21 27 3 87 19 134 34 47 16 110 32 140 36 30 4 70 15 89 25 19 11 47 19 62 19
15 0 45 6 65 14 87 32 172 54 228 60 32 4 66 13 75 20 8 8 40 17 70 21 30 4
94 20 141 35 47 16 108 31 135 35 27 4 66 16 86 26 21 11 51 19 67 19 17 0 78
16 135 35 58 19 122 35 143 35 21 0 50 6 65 14 15 8 53 20 85 26 65 13 140 35
193 55 19 8 61 17 92 20 31 3 62 12 68 20 6 8 37 17 68 21 31 3 98 20 147 36
50 16 115 32 145 35 30 3 64 11 76 18 11 8 45 18 75 24 30 6 79 18 109 26 42
12 115 15 318 15 275 0 337 -7 482 -57 25 -8 73 -19 106 -23 34 -5 101 -23
150 -39 49 -17 100 -31 114 -31 14 0 45 -9 69 -20 24 -11 69 -23 100 -26 31
-3 76 -14 101 -24 25 -10 79 -25 120 -35 41 -9 99 -25 128 -36 30 -10 71 -19
93 -19 22 0 66 -11 98 -24 32 -13 82 -29 112 -35 30 -7 74 -19 99 -27 25 -9
79 -22 120 -29 41 -7 105 -24 142 -38 36 -13 91 -28 120 -31 30 -4 67 -14 83
-22 16 -8 50 -17 75 -20 25 -3 72 -16 106 -29 33 -13 94 -30 135 -39 41 -8 91
-22 109 -29 19 -8 58 -18 85 -22 28 -3 83 -17 123 -31 39 -13 100 -30 135 -38
34 -8 80 -21 102 -30 22 -8 57 -15 78 -16 21 0 52 -8 70 -17 40 -21 148 -22
197 -1 19 8 51 15 71 16 42 2 98 14 154 36 22 8 54 15 71 16 17 0 65 12 105
26 41 14 107 30 148 35 41 6 96 19 123 30 27 10 62 19 77 19 45 0 158 38 165
56 9 24 2 30 -61 48 -32 10 -89 28 -128 42 -38 13 -86 24 -105 24 -19 0 -48 7
-65 16 -16 8 -75 27 -130 41 -55 14 -111 31 -125 38 -14 7 -48 16 -75 20 -28
4 -90 20 -140 36 -49 15 -108 31 -130 35 -22 4 -56 15 -75 25 -19 11 -51 19
-72 19 -20 0 -61 9 -90 21 -58 23 -150 49 -174 49 -8 0 -33 9 -56 20 -22 10
-68 22 -102 26 -33 4 -72 12 -86 19 -29 15 -120 42 -170 51 -19 3 -56 14 -82
25 -26 10 -64 19 -85 19 -21 0 -50 6 -65 14 -14 8 -61 23 -105 35 -43 12 -98
29 -123 37 -25 9 -70 19 -101 24 -31 4 -93 22 -137 39 -45 17 -94 31 -109 31
-15 0 -48 10 -73 21 -24 11 -65 22 -90 25 -25 3 -83 19 -130 34 -47 16 -108
33 -135 39 -28 5 -64 17 -80 25 -17 9 -53 16 -80 16 -28 0 -59 6 -70 13 -11 7
-56 23 -100 36 -44 12 -100 29 -125 38 -25 8 -76 21 -115 28 -38 7 -106 25
-150 39 -44 14 -104 26 -132 26 -40 0 -58 5 -73 20 -20 20 -20 33 -20 1250 l0
1231 25 25 24 24 1973 0 c1878 0 1973 0 1980 17 11 29 10 5768 -2 5797 l-10
26 -4459 0 -4458 0 -7 -31z m8634 -261 l20 -22 0 -2382 0 -2383 -22 -15 c-20
-14 -431 -16 -4160 -16 -3754 0 -4138 1 -4152 16 -15 14 -16 240 -14 2403 3
2007 5 2391 17 2404 12 16 315 17 4152 17 l4138 0 21 -22z"/>
</g>
</svg>
