<?xml version="1.0" standalone="no"?>
<!DOCTYPE svg PUBLIC "-//W3C//DTD SVG 20010904//EN"
 "http://www.w3.org/TR/2001/REC-SVG-20010904/DTD/svg10.dtd">
<svg version="1.0" xmlns="http://www.w3.org/2000/svg"
 width="1024.000000pt" height="1024.000000pt" viewBox="0 0 1024.000000 1024.000000"
 preserveAspectRatio="xMidYMid meet">

<g transform="translate(0.000000,1024.000000) scale(0.100000,-0.100000)">
<path d="M176 7435 c-9 -25 -7 -3408 3 -3423 8 -14 14 -13 341 40 69 11 154
24 190 28 36 5 119 17 185 28 105 18 318 51 525 83 36 5 103 16 150 24 47 8
121 19 165 25 44 7 103 16 130 21 28 5 68 11 90 14 39 5 68 10 255 39 140 23
158 25 238 36 40 5 76 11 80 13 4 3 30 8 57 11 28 3 77 11 110 16 33 6 121 19
195 30 74 11 206 31 293 45 l159 25 829 0 829 0 -2 -532 -3 -533 -47 -6 c-26
-4 -52 -10 -59 -14 -6 -4 -25 -11 -43 -15 -36 -10 -274 -79 -394 -115 -45 -14
-120 -36 -167 -50 -47 -13 -122 -36 -168 -50 -45 -13 -154 -45 -242 -71 -88
-25 -196 -57 -240 -71 -44 -13 -105 -31 -135 -40 -98 -30 -92 -36 75 -78 61
-14 124 -31 140 -35 17 -5 48 -14 70 -20 41 -12 42 -12 213 36 31 9 71 20 87
24 26 7 229 64 320 90 17 4 55 16 85 25 30 9 71 20 90 25 19 4 60 15 90 24 97
29 124 37 165 47 22 5 49 13 60 18 60 25 162 41 266 41 114 0 151 -7 314 -56
44 -13 84 -24 89 -24 6 0 48 -12 95 -26 121 -36 169 -50 221 -64 25 -7 65 -18
90 -25 25 -7 65 -18 90 -25 25 -7 56 -16 70 -20 14 -4 43 -13 65 -19 105 -29
223 -62 254 -72 24 -8 46 -8 80 1 25 6 62 15 81 20 19 4 60 15 90 23 30 8 85
23 123 32 37 10 67 22 67 27 0 10 -33 24 -105 43 -27 8 -142 41 -255 75 -277
83 -300 89 -338 96 -18 4 -35 11 -38 15 -3 5 -14 9 -25 9 -17 0 -114 28 -214
62 -16 5 -46 14 -65 19 -74 21 -98 28 -195 57 -135 41 -252 73 -295 81 l-35 6
-3 533 -2 532 808 0 809 0 164 -25 c90 -14 207 -32 259 -40 52 -8 124 -19 160
-25 36 -5 110 -16 165 -25 55 -9 130 -20 166 -25 37 -4 71 -10 75 -13 5 -3 37
-8 70 -11 34 -3 84 -10 110 -15 55 -10 141 -24 289 -46 170 -25 237 -36 330
-51 50 -8 117 -19 150 -24 33 -6 103 -17 155 -25 52 -8 124 -19 160 -24 36 -6
110 -17 165 -26 134 -21 190 -30 390 -60 94 -15 208 -33 254 -40 46 -8 87 -12
92 -9 11 7 12 3431 1 3438 -5 3 -51 -1 -103 -9 -52 -8 -141 -22 -199 -30 -58
-9 -175 -27 -260 -40 -85 -14 -186 -29 -225 -35 -38 -6 -108 -17 -155 -25 -47
-7 -125 -19 -175 -26 -49 -6 -108 -16 -129 -21 -22 -5 -74 -14 -115 -19 -42
-5 -101 -13 -131 -17 -111 -17 -216 -34 -265 -42 -27 -5 -97 -16 -155 -24 -58
-9 -148 -23 -200 -31 -52 -8 -160 -24 -240 -35 -80 -11 -152 -23 -162 -26 -9
-2 -49 -9 -90 -14 -40 -5 -116 -16 -168 -25 -52 -9 -124 -20 -160 -25 -36 -4
-101 -14 -145 -22 -118 -19 -3635 -19 -3745 0 -41 8 -106 18 -145 22 -38 5
-92 13 -120 18 -27 6 -81 15 -120 21 -38 5 -99 15 -135 20 -126 20 -476 73
-540 81 -58 8 -213 32 -280 44 -14 3 -79 12 -145 21 -66 9 -134 21 -151 26
-17 5 -46 9 -65 9 -19 0 -70 7 -114 15 -44 8 -114 19 -155 25 -41 6 -113 17
-160 25 -47 8 -116 18 -155 24 -88 14 -381 59 -460 71 -337 53 -342 53 -349
35z m296 -179 c51 -8 134 -20 183 -26 50 -6 115 -15 145 -20 30 -5 75 -12 100
-14 62 -6 185 -25 243 -36 27 -6 64 -10 84 -10 32 0 122 -13 274 -40 30 -6 70
-10 88 -10 18 0 74 -7 125 -15 50 -9 120 -20 156 -25 88 -12 278 -38 370 -50
41 -6 134 -19 206 -30 71 -11 148 -20 170 -20 21 0 55 -4 74 -10 32 -8 120
-21 280 -39 130 -15 246 -34 285 -46 l40 -12 0 -1023 c0 -899 -2 -1024 -15
-1031 -8 -4 -71 -15 -140 -24 -151 -19 -232 -31 -325 -46 -38 -6 -104 -15
-145 -20 -41 -5 -91 -11 -110 -14 -19 -3 -87 -12 -150 -21 -63 -8 -142 -19
-175 -24 -33 -5 -114 -16 -180 -25 -66 -8 -147 -20 -180 -25 -33 -5 -98 -14
-145 -20 -47 -6 -128 -17 -180 -25 -52 -8 -133 -19 -180 -25 -47 -7 -130 -18
-185 -26 -55 -8 -131 -19 -170 -24 -68 -9 -213 -30 -345 -50 -281 -41 -321
-45 -330 -30 -11 17 -14 2853 -3 2863 9 10 30 9 135 -7z m9476 -1424 c2 -1268
0 -1433 -13 -1438 -14 -6 -58 0 -380 46 -77 12 -174 25 -215 30 -41 5 -118 16
-170 24 -52 8 -115 18 -140 21 -100 13 -190 25 -285 39 -55 8 -138 20 -185 26
-47 6 -112 15 -145 20 -33 6 -82 12 -109 15 -27 3 -77 9 -110 14 -62 10 -125
19 -326 46 -63 9 -137 20 -163 25 -27 6 -64 10 -84 10 -19 0 -76 7 -127 15
-50 9 -120 20 -156 25 -36 5 -113 16 -171 24 -59 9 -120 16 -136 16 -16 0 -34
5 -41 12 -9 9 -12 251 -12 1030 0 1011 0 1017 20 1028 11 6 60 15 108 21 48 5
94 12 101 15 8 3 56 9 105 15 50 5 136 16 191 24 55 9 118 18 140 21 74 9 339
44 405 54 36 5 119 16 185 25 189 25 244 33 341 50 51 8 108 15 129 15 20 0
55 4 78 9 23 5 96 17 162 26 66 9 149 20 185 25 185 26 349 49 505 70 44 6
121 17 170 24 50 8 101 13 115 12 l25 -1 3 -1433z m-3160 -1 c2 -805 0 -1016
-10 -1023 -17 -10 -3211 -10 -3258 0 l-35 8 -3 997 c-1 678 1 1004 8 1018 11
19 35 19 1653 17 l1642 -3 3 -1014z"/>
</g>
</svg>
